<svg width="46" height="32" viewBox="0 0 46 32" fill="none" xmlns="http://www.w3.org/2000/svg">
<path d="M45.6967 12.0073C45.5831 11.8791 45.4431 11.7762 45.286 11.7056C45.129 11.6349 44.9585 11.5982 44.786 11.5978H38.0512L29.9109 2.40632C29.797 2.27862 29.6568 2.17634 29.4998 2.10629C29.3428 2.03623 29.1725 2 29.0002 2C28.8279 2 28.6576 2.03623 28.5006 2.10629C28.3436 2.17634 28.2034 2.27862 28.0895 2.40632L19.9492 11.5978H13.2144C13.0413 11.5978 12.8703 11.6343 12.7127 11.705C12.555 11.7757 12.4146 11.8788 12.3006 12.0075C12.1866 12.1362 12.1018 12.2875 12.0518 12.4513C12.0018 12.615 11.9878 12.7874 12.0107 12.957L14.2981 29.9178C14.3779 30.4934 14.6655 31.0211 15.1079 31.4038C15.5502 31.7864 16.1176 31.9981 16.7055 32H41.2949C41.8828 31.9981 42.4501 31.7864 42.8925 31.4038C43.3349 31.0211 43.6225 30.4934 43.7023 29.9178L45.9897 12.957C46.0122 12.7872 45.9977 12.6146 45.9472 12.4508C45.8967 12.287 45.8113 12.1358 45.6967 12.0073ZM21.9573 27.1995C21.9163 27.2018 21.8753 27.2018 21.8343 27.1995C21.5323 27.201 21.2405 27.0911 21.0159 26.8914C20.7914 26.6917 20.6503 26.4164 20.62 26.1194L19.77 17.7185C19.7378 17.4018 19.8342 17.0854 20.0381 16.8389C20.2419 16.5925 20.5364 16.4362 20.8568 16.4043C21.1773 16.3725 21.4974 16.4678 21.7467 16.6692C21.9961 16.8706 22.1543 17.1617 22.1865 17.4784L23.0365 25.8793C23.0705 26.1958 22.9759 26.5127 22.7735 26.7603C22.5711 27.0079 22.2775 27.1659 21.9573 27.1995ZM30.2145 25.9994C30.2145 26.3176 30.0866 26.6229 29.8588 26.848C29.6311 27.073 29.3222 27.1995 29.0002 27.1995C28.6781 27.1995 28.3693 27.073 28.1416 26.848C27.9138 26.6229 27.7859 26.3176 27.7859 25.9994V17.5985C27.7859 17.2802 27.9138 16.9749 28.1416 16.7498C28.3693 16.5248 28.6781 16.3983 29.0002 16.3983C29.3222 16.3983 29.6311 16.5248 29.8588 16.7498C30.0866 16.9749 30.2145 17.2802 30.2145 17.5985V25.9994ZM23.1761 11.5978L29.0002 5.0196L34.8242 11.5978H23.1761ZM38.2228 17.7185L37.3727 26.1194C37.3427 26.4151 37.2026 26.6894 36.9797 26.8889C36.7567 27.0884 36.4668 27.1991 36.166 27.1995C36.1251 27.2018 36.084 27.2018 36.0431 27.1995C35.8844 27.1837 35.7305 27.1372 35.59 27.0627C35.4495 26.9881 35.3252 26.8869 35.2243 26.7649C35.1234 26.6428 35.0478 26.5024 35.0018 26.3515C34.9558 26.2005 34.9404 26.0422 34.9563 25.8853L35.8063 17.4844C35.8385 17.1677 35.9967 16.8766 36.2461 16.6752C36.4954 16.4738 36.8155 16.3785 37.136 16.4103C37.4564 16.4422 37.7509 16.5985 37.9547 16.8449C38.1586 17.0914 38.255 17.4078 38.2228 17.7245V17.7185Z" fill="white"/>
<circle cx="9" cy="9" r="9" fill="#FF0000"/>
<path d="M11.3615 3.615H8.08553L7.72153 5.747C8.13753 5.448 8.55353 5.357 9.06053 5.357C10.9585 5.357 12.2845 6.852 12.2845 8.672C12.2845 10.622 10.9455 12.182 8.99553 12.182C7.24053 12.182 5.94053 10.986 5.71953 9.088H7.07153C7.33153 10.323 8.05953 10.947 9.00853 10.947C10.0615 10.947 10.9325 9.972 10.9325 8.841C10.9325 7.645 10.1915 6.592 9.06053 6.592C8.28053 6.592 7.73453 6.93 7.33153 7.593L6.16153 7.32L6.96753 2.38H11.3615V3.615Z" fill="white"/>
</svg>
