<svg width="1512" height="168" viewBox="0 0 1512 168" fill="none" xmlns="http://www.w3.org/2000/svg">
<g clip-path="url(#clip0_39_1819)">
<g clip-path="url(#clip1_39_1819)">
<path d="M808.271 85.56C808.271 92.628 806.868 99.3768 804.332 105.523L705.899 100.523C704.483 95.7838 703.729 90.7724 703.729 85.56C703.729 56.6263 727.128 33.1768 756 33.1768C784.872 33.1768 808.271 56.6263 808.271 85.56Z" fill="#334156"/>
<path d="M804.332 105.523C804.332 105.523 804.32 105.547 804.32 105.558C771.203 104.235 738.285 102.604 705.946 100.701C705.934 100.642 705.911 100.583 705.899 100.523L804.332 105.523Z" fill="#334156"/>
<path d="M842.51 106.953C987.341 111.752 1132.69 110.499 1244.92 99.708V168H305.384C305.384 145.236 317.603 58.7659 338.525 62.5835C415.847 76.6958 535.498 89.638 668.146 98.3488L842.51 106.953Z" fill="#A3B4CC"/>
<path d="M1512 168H0V72.7242C0 72.7242 257.064 1.16991 400.362 74.8044C659.595 208.02 1064.12 137.518 1257.84 95.6064C1336.06 78.6811 1419.23 82.8651 1511.99 102.639" fill="#334156"/>
<path d="M206.408 41.9941C206.408 41.9941 215.466 24.7851 223.84 0C223.84 0 227.319 17.8354 244.597 41.7104L206.408 42.0059V41.9941Z" fill="#64758B"/>
<path d="M223.84 0C223.84 0 206.408 10.3419 174.34 6.96159C174.34 6.96159 169.634 24.5133 153.158 45.469L206.408 42.0059C206.408 42.0059 217.636 28.9574 223.84 0.0118193V0Z" fill="#334156"/>
<path d="M289.509 20.8023C289.509 20.8023 289.568 25.0099 287.504 28.6148C289.934 14.8453 276.323 10.4722 276.323 10.4722C276.323 10.4722 280.51 13.8289 275.769 20.1877C273.634 23.0479 272.608 25.5182 272.125 27.3738C271.771 28.7449 271.877 30.175 272.396 31.4633C269.636 28.6858 269.896 24.2653 269.896 24.2653C269.058 26.0973 268.138 28.6385 267.973 30.2223C267.195 37.8339 272.148 43.1172 279.767 42.9517C287.398 42.7744 293.436 36.4392 293.271 28.7921C293.201 25.79 291.196 23.0598 289.521 20.8377L289.509 20.8023Z" fill="#64758B"/>
<path d="M274.649 16.6064C274.649 16.6064 272.408 17.5047 271.688 19.384C271.299 20.3886 272.36 21.9133 272.36 21.9133C272.36 21.9133 272.396 19.4549 274.637 16.6064H274.649Z" fill="#64758B"/>
<path d="M288.672 15.1646C288.023 13.2144 285.57 11.6069 285.57 11.6069C287.386 15.07 287.681 18.0721 287.681 18.0721C287.681 18.0721 289.332 17.1147 288.672 15.1646Z" fill="#64758B"/>
<path d="M294.127 40.3557L265.721 39.3716L265.56 44.0374L293.966 45.0216L294.127 40.3557Z" fill="#334156"/>
<path d="M1258.42 39.7725L1244.73 88.8109L1278.67 86.4706L1258.42 39.7725Z" fill="#334156"/>
<path d="M1266.96 86.6559L1256.39 87.3833L1257.56 104.505L1268.13 103.777L1266.96 86.6559Z" fill="#334156"/>
<path d="M1258.39 39.4531L1244.7 81.3763L1277.69 79.107L1258.39 39.4531Z" fill="#334156"/>
<path d="M1258.42 39.7725L1245.18 72.6538L1276.01 70.5382L1258.42 39.7725Z" fill="#334156"/>
<path d="M1287.12 34.3467L1272.18 80.5839L1304.62 79.6856L1287.12 34.3467Z" fill="#334156"/>
<path d="M1293.46 78.6181L1283.35 78.9009L1283.81 95.2761L1293.91 94.9933L1293.46 78.6181Z" fill="#334156"/>
<path d="M1287.11 34.0396L1272.44 73.5043L1303.98 72.6179L1287.11 34.0396Z" fill="#334156"/>
<path d="M1287.12 34.3467L1273.23 65.1951L1302.71 64.3678L1287.12 34.3467Z" fill="#334156"/>
<path d="M1345.79 32.7866L1332.73 79.603L1365.12 77.3691L1345.79 32.7866Z" fill="#334156"/>
<path d="M1353.94 77.6075L1343.86 78.3018L1344.98 94.6448L1355.06 93.9506L1353.94 77.6075Z" fill="#334156"/>
<path d="M1345.77 32.4912L1332.71 72.5115L1364.18 70.3485L1345.77 32.4912Z" fill="#334156"/>
<path d="M1345.79 32.7866L1333.17 64.1906L1362.59 62.1577L1345.79 32.7866Z" fill="#334156"/>
<path d="M1370.12 30.5645L1353.89 77.8536H1386.36L1370.12 30.5645Z" fill="#334156"/>
<path d="M1375.18 76.8257H1365.07V93.7391H1375.18V76.8257Z" fill="#334156"/>
<path d="M1370.12 30.2573L1354.35 70.5494H1385.9L1370.12 30.2573Z" fill="#334156"/>
<path d="M1370.12 30.5645L1355.37 62.0039H1384.87L1370.12 30.5645Z" fill="#334156"/>
<path d="M1393.91 36.0728L1377.08 78.4687L1407.52 79.6034L1393.91 36.0728Z" fill="#334156"/>
<path d="M1397.02 78.2828L1387.54 77.9263L1386.97 93.2924L1396.44 93.6489L1397.02 78.2828Z" fill="#334156"/>
<path d="M1393.92 35.7891L1377.75 71.838L1407.34 72.949L1393.92 35.7891Z" fill="#334156"/>
<path d="M1393.91 36.0728L1379 64.12L1406.67 65.1483L1393.91 36.0728Z" fill="#334156"/>
<path d="M1486.93 36.8999L1466.6 81.0451L1498.93 83.9999L1486.93 36.8999Z" fill="#334156"/>
<path d="M1487.79 82.154L1477.72 81.2324L1476.24 97.5461L1486.3 98.4676L1487.79 82.154Z" fill="#334156"/>
<path d="M1486.95 36.6045L1467.7 74.0363L1499.12 76.9084L1486.95 36.6045Z" fill="#334156"/>
<path d="M1486.93 36.8999L1469.47 65.8809L1498.85 68.5757L1486.93 36.8999Z" fill="#334156"/>
<path d="M1457.26 43.1763L1439.76 81.1754L1467.6 83.7166L1457.26 43.1763Z" fill="#334156"/>
<path d="M1457.99 82.1055L1449.33 81.313L1448.05 95.355L1456.71 96.1475L1457.99 82.1055Z" fill="#334156"/>
<path d="M1457.29 42.916L1440.7 75.1473L1467.76 76.7666L1457.29 42.916Z" fill="#334156"/>
<path d="M1457.26 43.1763L1442.24 68.1269L1467.52 69.5925L1457.26 43.1763Z" fill="#334156"/>
<path d="M29.9333 1.07568L17.8208 50.8942L53.2856 46.7101L29.9333 1.07568Z" fill="#334156"/>
<path d="M40.9701 47.5165L29.9364 48.8193L31.9431 65.8866L42.9768 64.5837L40.9701 47.5165Z" fill="#334156"/>
<path d="M29.898 0.756348L17.4552 43.4596L51.9175 39.3937L29.898 0.756348Z" fill="#334156"/>
<path d="M29.9334 1.07568L17.5614 34.7017L49.7828 30.8959L29.9334 1.07568Z" fill="#334156"/>
<path d="M63.688 1.53662L53.1559 50.8942L83.8205 47.7975L63.688 1.53662Z" fill="#334156"/>
<path d="M73.2559 48.2756L63.7156 49.2383L65.4337 66.3371L74.974 65.3744L73.2559 48.2756Z" fill="#334156"/>
<path d="M63.6526 1.21729L52.8492 43.4596L82.6529 40.4575L63.6526 1.21729Z" fill="#334156"/>
<path d="M63.688 1.53662L52.9436 34.7253L80.813 31.9123L63.688 1.53662Z" fill="#334156"/>
<path d="M116.909 37.2814L136.645 34.9509C140.136 34.5388 143.293 37.0461 143.703 40.5323L144.48 47.1409L112.117 50.9623L111.34 44.3537C110.928 40.8557 113.43 37.6922 116.909 37.2814Z" fill="#334156"/>
<path d="M285.016 34.3113C286.537 25.7068 278.033 22.9766 278.033 22.9766C278.033 22.9766 280.652 25.0804 277.68 29.0399C276.347 30.8246 275.698 32.3729 275.403 33.5312C275.179 34.3822 275.25 35.2805 275.569 36.0842C275.569 36.0842 276.441 38.649 280.227 38.2944C284.013 37.9398 285.004 34.3231 285.004 34.3231L285.016 34.3113Z" fill="#334156"/>
<path d="M766.001 125.852C764.787 124.836 754.655 122.425 754.62 121.148C754.561 118.902 800.876 118.855 800.664 116.94C800.511 115.605 769.929 113.796 770.094 112.024C770.318 109.565 822.46 105.724 845.753 107.048C847.369 107.142 833.452 106.067 804.556 104.967C796.064 104.648 775.024 103.478 752.014 102.355C734.712 101.504 715.039 100.653 705.816 100.192C691.84 99.495 671.837 98.5022 673.217 98.5849C703.387 100.511 725.229 106.303 725.111 108.099C725.017 109.506 697.619 108.348 697.572 109.364C697.525 110.369 731.327 113.761 731.303 115.64C731.28 117.177 709.543 116.822 709.496 118.099C709.449 119.529 736.339 121.077 736.292 122.803C736.268 123.902 721.373 123.441 723.012 125.084C724.168 126.242 769.009 128.322 766.013 125.828L766.001 125.852Z" fill="white"/>
</g>
<path d="M67.4219 117.512L68.3579 118.976C66.2459 120.152 64.0859 120.776 61.7099 120.776C55.7099 120.776 52.1579 116.984 52.1579 111.776C52.1579 106.328 56.0939 102.392 61.6379 102.392C66.4139 102.392 69.8699 105.512 69.8699 110.264C69.8699 113.552 68.0459 116.72 65.3099 116.72C64.2539 116.72 63.4379 116.168 63.2459 115.28H63.1979C62.4299 116.336 61.2539 116.72 60.0059 116.72C57.7259 116.72 56.2619 114.8 56.2619 112.4C56.2619 109.568 58.2059 106.976 60.9419 106.976C62.2859 106.976 63.2459 107.408 63.9179 108.632H63.9659L64.2059 107.312H65.9819L64.9739 112.856C64.9019 113.288 64.7819 113.72 64.7819 114.248C64.7819 114.608 65.0219 114.896 65.3819 114.896C67.1339 114.896 67.9499 112.76 67.9499 110.144C67.9499 106.52 65.2619 104.216 61.4459 104.216C57.1499 104.216 54.0779 107.36 54.0779 111.608C54.0779 116.168 57.0299 118.952 61.7099 118.952C63.8219 118.952 66.1019 118.472 67.4219 117.512ZM60.2939 114.896C62.2379 114.896 63.4379 113.288 63.4379 111.008C63.4379 109.472 62.5499 108.8 61.0379 108.8C59.3579 108.8 58.1819 110.504 58.1819 112.352C58.1819 113.816 58.9739 114.896 60.2939 114.896ZM76.2963 120.464H73.7043V105.08H70.2963V102.704H79.7043V105.08H76.2963V120.464ZM91.0377 120.464H81.4617V102.704H91.0377V105.08H84.0537V110.312H91.0377V112.688H84.0537V118.088H91.0377V120.464ZM107.274 116.072H110.466C108.666 119.168 105.81 120.8 102.258 120.8C97.3385 120.8 93.2825 116.384 93.2825 111.656C93.2825 106.304 97.5065 102.368 102.282 102.368C105.642 102.368 108.786 103.904 110.586 107.24H107.466C106.122 105.68 104.562 104.744 102.474 104.744C98.7545 104.744 95.8745 107.888 95.8745 111.416C95.8745 115.136 98.6825 118.424 102.33 118.424C104.178 118.424 105.834 117.704 107.274 116.072ZM125.448 120.464H122.856V112.736H115.536V120.464H112.944V102.704H115.536V110.36H122.856V102.704H125.448V120.464ZM142.126 116.072H145.318C143.518 119.168 140.662 120.8 137.11 120.8C132.19 120.8 128.134 116.384 128.134 111.656C128.134 106.304 132.358 102.368 137.134 102.368C140.494 102.368 143.638 103.904 145.438 107.24H142.318C140.974 105.68 139.414 104.744 137.326 104.744C133.606 104.744 130.726 107.888 130.726 111.416C130.726 115.136 133.534 118.424 137.182 118.424C139.03 118.424 140.686 117.704 142.126 116.072ZM156.147 118.424C160.347 118.424 162.795 114.872 162.795 111.632C162.795 107.96 160.011 104.744 156.267 104.744C151.467 104.744 149.499 108.872 149.499 111.512C149.499 115.088 152.091 118.424 156.147 118.424ZM165.387 111.464C165.387 116.84 161.235 120.8 156.003 120.8C151.083 120.8 146.907 116.576 146.907 111.776C146.907 106.328 151.083 102.368 156.075 102.368C161.355 102.368 165.387 106.52 165.387 111.464ZM176.948 120.464H168.188V102.704H170.78V118.088H176.948V120.464ZM187.612 120.464H178.852V102.704H181.444V118.088H187.612V120.464ZM198.756 120.464H189.18V102.704H198.756V105.08H191.772V110.312H198.756V112.688H191.772V118.088H198.756V120.464ZM216.313 114.008H208.033V111.632H219.265C219.097 117.536 214.633 120.8 209.905 120.8C205.105 120.8 201.001 116.624 201.001 111.824C201.001 106.064 205.417 102.368 209.905 102.368C213.313 102.368 216.241 103.976 218.041 107.168H215.017C213.505 105.44 211.993 104.744 210.025 104.744C206.569 104.744 203.593 108.008 203.593 111.512C203.593 115.256 206.545 118.424 210.121 118.424C212.929 118.424 215.185 116.864 216.313 114.008ZM231.171 120.464H221.595V102.704H231.171V105.08H224.187V110.312H231.171V112.688H224.187V118.088H231.171V120.464ZM251.677 120.464H240.565V118.376L247.669 111.152C249.109 109.688 249.157 108.632 249.157 108.032C249.157 106.208 247.909 104.648 246.109 104.648C244.213 104.648 242.965 106.16 242.965 108.464V108.8H240.469V108.488C240.469 104.48 243.277 102.368 246.061 102.368C249.229 102.368 251.653 104.936 251.653 108.104C251.653 109.856 251.125 111.104 249.157 113.12L244.237 118.184H251.677V120.464ZM265.302 108.104V115.112C265.302 119 262.062 120.8 259.518 120.8C256.854 120.8 253.806 118.856 253.806 114.872V108.272C253.806 104.504 256.662 102.344 259.614 102.344C262.854 102.344 265.302 104.96 265.302 108.104ZM262.806 115.232V108.104C262.806 106.328 261.798 104.624 259.566 104.624C257.478 104.624 256.302 106.208 256.302 108.104V114.752C256.302 116.792 257.382 118.52 259.566 118.52C261.15 118.52 262.806 117.272 262.806 115.232ZM278.302 120.464H267.19V118.376L274.294 111.152C275.734 109.688 275.782 108.632 275.782 108.032C275.782 106.208 274.534 104.648 272.734 104.648C270.838 104.648 269.59 106.16 269.59 108.464V108.8H267.094V108.488C267.094 104.48 269.902 102.368 272.686 102.368C275.854 102.368 278.278 104.936 278.278 108.104C278.278 109.856 277.75 111.104 275.782 113.12L270.862 118.184H278.302V120.464ZM290.535 104.984H284.487L283.815 108.92C284.583 108.368 285.351 108.2 286.287 108.2C289.791 108.2 292.239 110.96 292.239 114.32C292.239 117.92 289.767 120.8 286.167 120.8C282.927 120.8 280.527 118.592 280.119 115.088H282.615C283.095 117.368 284.439 118.52 286.191 118.52C288.135 118.52 289.743 116.72 289.743 114.632C289.743 112.424 288.375 110.48 286.287 110.48C284.847 110.48 283.839 111.104 283.095 112.328L280.935 111.824L282.423 102.704H290.535V104.984Z" fill="#A3B4CC"/>
</g>
<defs>
<clipPath id="clip0_39_1819">
<rect width="1512" height="168" fill="white"/>
</clipPath>
<clipPath id="clip1_39_1819">
<rect width="1512" height="168" fill="white"/>
</clipPath>
</defs>
</svg>
