<svg width="46" height="46" viewBox="0 0 46 46" fill="none" xmlns="http://www.w3.org/2000/svg">
<g clip-path="url(#clip0_225_28872)">
<path d="M16.005 9.76496L15.495 10.05L14.715 7.64996L16.005 9.76496Z" fill="white"/>
<path d="M16.935 11.325L16.08 11.805L15.6 10.365L16.155 10.035L16.935 11.325Z" fill="white"/>
<path d="M17.88 12.87L16.65 13.59L16.17 12.12L17.1 11.595L17.88 12.87Z" fill="white"/>
<path d="M18.81 14.43L17.22 15.345L16.755 13.905L18.045 13.155L18.81 14.43Z" fill="white"/>
<path d="M19.77 16.005L17.805 17.13L17.325 15.66L18.99 14.715L19.77 16.005Z" fill="white"/>
<path d="M26.61 33.9L20.745 24.21H20.67C20.43 24.21 20.205 24.18 19.98 24.135C18.405 23.82 17.22 22.44 17.22 20.775C17.22 19.83 17.595 18.975 18.21 18.36L17.91 17.46L19.935 16.29L20.58 17.34C20.58 17.34 20.46 17.355 20.385 17.355C20.475 17.355 20.565 17.34 20.655 17.34C20.895 17.34 21.12 17.355 21.345 17.415C22.92 17.715 24.105 19.11 24.105 20.775C24.105 21.72 23.73 22.575 23.115 23.19L26.61 33.9Z" fill="white"/>
<path d="M20.94 4.03503C30.255 4.03503 37.845 11.61 37.845 20.94C37.845 30.27 30.27 37.845 20.94 37.845C11.61 37.845 4.035 30.255 4.035 20.94C4.035 11.625 11.625 4.03503 20.94 4.03503ZM20.94 2.91003C10.98 2.91003 2.91 10.98 2.91 20.94C2.91 30.9 10.98 38.97 20.94 38.97C30.9 38.97 38.97 30.9 38.97 20.94C38.97 10.98 30.9 2.91003 20.94 2.91003Z" fill="white"/>
<path d="M20.94 2.25C31.245 2.25 39.63 10.635 39.63 20.94C39.63 31.245 31.245 39.63 20.94 39.63C10.635 39.63 2.25 31.245 2.25 20.94C2.25 10.635 10.635 2.25 20.94 2.25ZM20.94 0C9.375 0 0 9.375 0 20.94C0 32.505 9.375 41.88 20.94 41.88C32.505 41.88 41.88 32.505 41.88 20.94C41.88 9.375 32.505 0 20.94 0Z" fill="white"/>
</g>
<defs>
<clipPath id="clip0_225_28872">
<rect width="42" height="42" fill="white"/>
</clipPath>
</defs>
</svg>
